<svg width="44" height="44" viewBox="0 0 44 44" fill="none" xmlns="http://www.w3.org/2000/svg">
<rect width="44" height="44" rx="12" fill="#23429D" fill-opacity="0.2"/>
<path d="M7.62917 34.8814H9.27654C10.3113 34.8814 11.1145 34.0782 11.1145 33.0434V30.6881C14.1506 30.8787 18.6298 31.0285 22.2377 31.0285C25.8456 31.0285 30.3248 30.8923 33.3472 30.6881V33.0434C33.3472 34.0782 34.1505 34.8814 35.1988 34.8814H36.8326C37.8809 34.8814 38.6842 34.0782 38.6842 33.0434V24.97C38.6842 22.5602 38.2349 21.2259 36.9687 19.5786L35.757 18.0537C35.2533 15.6167 34.3547 13.0435 33.8782 12.0361C33.1158 10.4159 31.6454 9.4629 29.7666 9.20422C28.7727 9.06807 25.8592 9 22.2377 9C18.6162 9 15.689 9.08169 14.7088 9.20422C12.83 9.43567 11.346 10.4159 10.5972 12.0361C10.1207 13.0435 9.22209 15.6167 8.71834 18.0537L7.50664 19.5786C6.22687 21.2259 5.7912 22.5602 5.7912 24.97V33.0434C5.7912 34.0782 6.59446 34.8814 7.62917 34.8814ZM11.768 16.8012C12.0812 15.4533 12.6802 13.6562 13.0886 12.9346C13.4835 12.2131 13.9327 11.9135 14.7769 11.8046C15.7435 11.6685 18.0716 11.5868 22.2377 11.5868C26.3901 11.5868 28.7319 11.6412 29.6985 11.8046C30.5426 11.9271 30.9783 12.2131 31.3867 12.9346C31.8088 13.6426 32.367 15.4533 32.6937 16.8012C32.8435 17.3866 32.5848 17.6589 31.9721 17.6317C29.8755 17.5091 27.2342 17.373 22.2377 17.373C17.2411 17.373 14.5999 17.5091 12.5032 17.6317C11.8769 17.6589 11.6455 17.3866 11.768 16.8012ZM12.2581 27.2164C10.9648 27.2164 9.97089 26.2361 9.97089 24.9427C9.97089 23.6357 10.9648 22.6555 12.2581 22.6555C13.5515 22.6555 14.5318 23.6357 14.5318 24.9427C14.5318 26.2361 13.5515 27.2164 12.2581 27.2164ZM32.2172 27.2164C30.9102 27.2164 29.9299 26.2361 29.9299 24.9427C29.9299 23.6357 30.9102 22.6555 32.2172 22.6555C33.5106 22.6555 34.4908 23.6357 34.4908 24.9427C34.4908 26.2361 33.5106 27.2164 32.2172 27.2164ZM18.5617 26.6446C17.5815 26.6446 16.9007 25.9638 16.9007 24.9972C16.9007 24.0306 17.5815 23.3498 18.5617 23.3498H25.9136C26.8803 23.3498 27.561 24.0306 27.561 24.9972C27.561 25.9638 26.8803 26.6446 25.9136 26.6446H18.5617Z" fill="#23429D"/>
</svg>
