<svg width="44" height="44" viewBox="0 0 44 44" fill="none" xmlns="http://www.w3.org/2000/svg">
<rect width="44" height="44" rx="12" fill="#ED413D" fill-opacity="0.2"/>
<path d="M7.12512 24.1499C7.12512 26.0006 8.38196 27.2298 10.2465 27.2298H16.213V33.2101C16.213 35.0747 17.4422 36.3177 19.293 36.3177H24.7208C26.5577 36.3177 27.8008 35.0747 27.8008 33.2101V27.2298H33.7673C35.6318 27.2298 36.8748 26.0006 36.8748 24.1499V18.722C36.8748 16.8851 35.6318 15.6421 33.7673 15.6421H27.8008V9.68935C27.8008 7.82481 26.5577 6.58179 24.7208 6.58179H19.293C17.4422 6.58179 16.213 7.82481 16.213 9.68935V15.6421H10.2327C8.36815 15.6421 7.12512 16.8851 7.12512 18.722V24.1499Z" fill="#ED413D"/>
</svg>
