<svg width="44" height="44" viewBox="0 0 44 44" fill="none" xmlns="http://www.w3.org/2000/svg">
<rect width="44" height="44" rx="12" fill="#A72391" fill-opacity="0.2"/>
<path d="M17.6471 37.7321C18.7931 37.7321 19.4963 37.081 19.4833 35.9872L19.2228 21.2331C19.2228 20.6992 19.4051 20.3867 19.8349 20.1914C21.6059 19.397 22.4002 18.5636 22.283 16.1545L21.9184 8.17199C21.8793 7.55995 21.5277 7.20835 20.9678 7.20835C20.4078 7.20835 20.0823 7.58599 20.0823 8.19803L20.1865 15.9462C20.1865 16.428 19.887 16.7145 19.4572 16.7145C19.0145 16.7145 18.715 16.441 18.7019 15.9852L18.5717 7.95061C18.5587 7.36462 18.2071 7 17.6471 7C17.0872 7 16.7356 7.36462 16.7226 7.95061L16.5924 15.9852C16.5924 16.428 16.2798 16.7145 15.8371 16.7145C15.4073 16.7145 15.1078 16.428 15.1209 15.9462L15.212 8.19803C15.212 7.58599 14.8865 7.20835 14.3265 7.20835C13.7666 7.20835 13.415 7.57297 13.3759 8.17199L13.0113 16.1545C12.8941 18.5636 13.6884 19.397 15.4594 20.1914C15.8892 20.3867 16.0715 20.6992 16.0715 21.2331L15.811 35.9872C15.785 37.081 16.5012 37.7321 17.6471 37.7321ZM27.9997 26.2206L27.7393 35.9351C27.7002 37.081 28.4294 37.7321 29.5624 37.7321C30.7213 37.7321 31.4245 37.1331 31.4245 36.0523V8.01572C31.4245 7.33857 30.9818 7 30.4609 7C29.9661 7 29.6145 7.27346 29.1847 7.8855C27.0621 10.8676 25.6036 16.5973 25.6036 21.8061V22.4963C25.6036 23.4339 25.9292 24.072 26.6454 24.5668L27.3486 25.0356C27.8174 25.3612 28.0127 25.7127 27.9997 26.2206Z" fill="#A72391"/>
</svg>
