<svg width="248" height="62" viewBox="0 0 248 62" fill="none" xmlns="http://www.w3.org/2000/svg">
<path fill-rule="evenodd" clip-rule="evenodd" d="M30.07 0C46.61 0 60.14 13.53 60.14 30.07V31.07C60.14 47.61 46.61 61.14 30.07 61.14C13.53 61.14 0 47.61 0 31.07V30.07C0 13.54 13.53 0 30.07 0ZM34.25 39.81C30.96 39.81 28.29 42.48 28.29 45.77C28.29 49.06 30.96 51.73 34.25 51.73C37.54 51.73 40.21 49.06 40.21 45.77C40.21 42.48 37.54 39.81 34.25 39.81ZM19.72 24.62C16.43 24.62 13.76 27.29 13.76 30.58C13.76 33.87 16.43 36.54 19.72 36.54C23.01 36.54 25.68 33.87 25.68 30.58C25.68 27.28 23.01 24.62 19.72 24.62ZM34.25 9.41998C30.96 9.41998 28.29 12.09 28.29 15.38C28.29 18.67 30.96 21.34 34.25 21.34C37.54 21.34 40.21 18.67 40.21 15.38C40.21 12.09 37.54 9.41998 34.25 9.41998ZM34.25 24.62C30.96 24.62 28.29 27.29 28.29 30.58C28.29 33.87 30.96 36.54 34.25 36.54C37.54 36.54 40.21 33.87 40.21 30.58C40.21 27.28 37.54 24.62 34.25 24.62Z" fill="#00B6E4"/>
<path fill-rule="evenodd" clip-rule="evenodd" d="M227.04 17.3202L232.05 35.7202H221.96L227.04 17.3202ZM97.2199 40.2102C97.2199 31.5702 96.63 29.2602 84.75 26.4202C77.82 24.7702 77.6299 24.7102 77.6299 20.4802C77.6299 17.2502 78.6199 16.4602 83.0399 16.4602C86.9999 16.4602 90.23 16.8602 95.24 17.7102L96.2299 9.40021C91.3499 8.34021 86.7299 7.9502 82.9099 7.9502C70.8399 7.9502 67.74 11.4502 67.74 20.2202C67.74 29.7202 69.3199 31.8302 79.9399 34.1402C87.1299 35.7202 87.33 36.1802 87.33 40.1402C87.33 43.8302 86.3399 44.8202 81.2599 44.8202C76.7099 44.8202 72.6199 43.9602 68.5999 42.7102L66.95 50.3602C70.71 52.0702 76.0499 53.2002 81.1299 53.2002C94.3799 53.2002 97.2199 48.9102 97.2199 40.2102ZM128.9 38.8902C128.9 42.3202 126.72 44.4302 121.78 44.4302C116.83 44.4302 114.66 42.3202 114.66 38.8902V22.2702C114.66 18.8402 116.84 16.7302 121.78 16.7302C126.73 16.7302 128.9 18.8402 128.9 22.2702V38.8902ZM138.79 21.4102C138.79 14.7502 134.17 7.9502 121.77 7.9502C109.37 7.9502 104.75 14.7402 104.75 21.4102V39.7502C104.75 46.4102 109.37 53.2102 121.77 53.2102C134.17 53.2102 138.79 46.4202 138.79 39.7502V21.4102ZM170.19 52.5402H182.39V8.6102H172.96V38.8802L158.52 8.6102H146.38V52.5402H155.81V23.6502L170.19 52.5402ZM199.47 52.5402V20.4202H189.97V52.5402H199.47ZM199.47 16.4002V8.62021H189.97V16.4002H199.47ZM233.64 8.6102H220.45L207.06 52.5402H217.35L219.72 43.9702H234.43L236.8 52.5402H247.09L233.64 8.6102Z" fill="#2E3192"/>
</svg>
